<?xml version="1.0" encoding="utf-8"?>
<!-- Generator: Adobe Illustrator 16.0.0, SVG Export Plug-In . SVG Version: 6.00 Build 0)  -->
<!DOCTYPE svg PUBLIC "-//W3C//DTD SVG 1.1//EN" "http://www.w3.org/Graphics/SVG/1.1/DTD/svg11.dtd">
<svg version="1.1" id="Capa_1" xmlns="http://www.w3.org/2000/svg" xmlns:xlink="http://www.w3.org/1999/xlink" x="0px" y="0px"
	 width="612px" height="792px" viewBox="0 0 612 792" enable-background="new 0 0 612 792" xml:space="preserve">
<g>
	<path fill-rule="evenodd" clip-rule="evenodd" fill="#CF777B" d="M349.051,335.125c0-2.191-0.276-4.207,0.223-6.211
		c0.108-0.412,2.512-0.885,4.828-1.189c28.136-3.76,46.554-8.27,54.723-13.57c17.82-11.588-24.362-23.463-104.593-27.994
		c-71.031-4.01-151.785-0.51-193.227,8.369c-35.803,7.68-29.198,17.766,15.996,24.416c44.21,6.498,117.434,7.311,167.519,1.729
		c51.852-5.775,55.17-16.514,7.093-22.34c-37.441-4.549-94.51-3.93-122.825,1.377c-19.396,3.643-18.092,8.584,3.117,11.734
		c17.468,2.605,45.89,3.023,64.82,0.957c13.347-1.467,17.328-4.127,8.004-5.791c-2.598-0.467-6.971-0.842-11.077-1.02
		c-8.473-0.375-14.171,0.438-12.189,1.637c1.347,0.807-1.364,1.359-7.383,1.506c-7.318,0.186-14.62-0.379-18.539-1.426
		c-6.029-1.609-2.6-3.811,7.979-5.145c17.901-2.258,46.325-2.059,64.952,0.43c23.63,3.166,24.977,8.627,3.546,12.305
		c-30.278,5.191-86.629,5.543-122.637,0.887c-50.182-6.48-41.646-17.516,17.098-23.057c50.597-4.752,120.597-3.365,162.935,3.258
		c46.703,7.295,45.957,18.949-0.982,26.244c-26.769,4.162-59.736,6.693-99.168,7.348c-50.536,0.852-95.525-1.164-133.021-5.998
		c-41.932-5.404-60.945-12.234-56.039-20.082c6.148-9.83,42.822-16.996,105.853-21.5c28.483-2.039,59.132-2.971,91.002-2.846
		c61.252,0.26,112.31,3.67,152.603,10.086c30.395,4.852,47.32,10.57,51.138,16.943c4.352,7.258-8.095,14-37.504,20.092
		c-16.102,3.332-36.09,6.123-59.567,8.443C352.633,334.82,351.458,334.912,349.051,335.125z"/>
</g>
</svg>
