<svg xmlns="http://www.w3.org/2000/svg" width="639" height="30" viewBox="0 0 639 30"><defs><style>.a{fill:#fcfc64;}.b{fill:#2b2c31;}</style></defs><g transform="translate(-641 -770)"><rect class="a" width="639" height="30" transform="translate(641 770)"/><path class="b" d="M0,0H10L0,30H-10Z" transform="translate(651 770)"/><path class="b" d="M0,0H10L0,30H-10Z" transform="translate(771 770)"/><path class="b" d="M0,0H10L0,30H-10Z" transform="translate(711 770)"/><path class="b" d="M0,0H10L0,30H-10Z" transform="translate(831 770)"/><path class="b" d="M0,0H10L0,30H-10Z" transform="translate(671 770)"/><path class="b" d="M0,0H10L0,30H-10Z" transform="translate(791 770)"/><path class="b" d="M0,0H10L0,30H-10Z" transform="translate(731 770)"/><path class="b" d="M0,0H10L0,30H-10Z" transform="translate(691 770)"/><path class="b" d="M0,0H10L0,30H-10Z" transform="translate(811 770)"/><path class="b" d="M0,0H10L0,30H-10Z" transform="translate(751 770)"/><g transform="translate(439)"><path class="b" d="M0,0H10L0,30H-10Z" transform="translate(651 770)"/><path class="b" d="M0,0H10L0,30H-10Z" transform="translate(771 770)"/><path class="b" d="M0,0H10L0,30H-10Z" transform="translate(711 770)"/><path class="b" d="M0,0H10L0,30H-10Z" transform="translate(831 770)"/><path class="b" d="M0,0H10L0,30H-10Z" transform="translate(671 770)"/><path class="b" d="M0,0H10L0,30H-10Z" transform="translate(791 770)"/><path class="b" d="M0,0H10L0,30H-10Z" transform="translate(731 770)"/><path class="b" d="M0,0H10L0,30H-10Z" transform="translate(691 770)"/><path class="b" d="M0,0H10L0,30H-10Z" transform="translate(811 770)"/><path class="b" d="M0,0H10L0,30H-10Z" transform="translate(751 770)"/></g></g></svg>